<svg width="224" height="339" viewBox="0 0 224 339" fill="none" xmlns="http://www.w3.org/2000/svg">
<path d="M35.9542 338.159C35.861 338.159 35.7705 338.128 35.6983 338.07C35.626 338.013 35.5763 337.933 35.5577 337.844C29.9491 311.904 3.24147 300.494 2.9663 300.376C2.87164 300.332 2.7979 300.255 2.76056 300.16C2.72321 300.065 2.72515 299.959 2.76598 299.865C2.80681 299.772 2.88335 299.697 2.97955 299.657C3.07574 299.617 3.18412 299.615 3.28194 299.651C3.55711 299.761 30.6451 311.329 36.3427 337.678C36.3534 337.729 36.3536 337.781 36.3435 337.832C36.3334 337.883 36.3131 337.931 36.2838 337.974C36.2545 338.018 36.2167 338.055 36.1727 338.084C36.1286 338.113 36.0792 338.133 36.0271 338.143H35.9461L35.9542 338.159Z" fill="#9AB3DA"/>
<path d="M9.65944 303.488C9.65944 303.488 7.28813 299.911 7.94368 296.893C8.59923 293.875 14.1269 297.192 9.65944 303.488Z" fill="#404B7C"/>
<path d="M15.1465 307.208C15.1465 307.208 12.4029 301.219 15.0979 297.839C17.793 294.458 19.9862 303.016 15.1465 307.208Z" fill="#404B7C"/>
<path d="M22.1149 313.235C22.1149 313.235 19.5655 308.027 21.0142 303.142C22.4629 298.256 28.7027 303.551 22.1149 313.235Z" fill="#404B7C"/>
<path d="M5.75029 301.282C5.75029 301.282 3.97788 298.335 1.18572 298.359C-1.60644 298.382 0.781057 302.417 5.75029 301.282Z" fill="#404B7C"/>
<path d="M11.6826 304.781C11.6826 304.781 6.82669 303.205 4.61724 304.229C2.40779 305.253 6.82668 308.476 11.6826 304.781Z" fill="#404B7C"/>
<path d="M16.8866 308.555C16.8866 308.555 10.9381 307.145 9.22229 309.965C7.50653 312.786 13.9487 313.669 16.8866 308.555Z" fill="#404B7C"/>
<path d="M23.4827 314.646C23.4827 314.646 16.8463 313.117 15.0496 316.466C13.2529 319.815 20.7715 320.753 23.4827 314.646Z" fill="#404B7C"/>
<path d="M26.2342 317.813C26.2342 317.813 26.1209 311.179 29.0668 308.279C32.0128 305.379 35.1206 313.834 26.2342 317.813Z" fill="#404B7C"/>
<path d="M27.6748 319.673C27.6748 319.673 21.4835 320.107 21.532 323.574C21.5806 327.041 26.0399 326.095 27.6748 319.673Z" fill="#404B7C"/>
<path d="M30.3616 323.692C30.6554 321.441 31.3772 319.263 32.4901 317.27C34.2139 314.126 39.7497 319.421 30.3616 323.692Z" fill="#404B7C"/>
<path d="M31.2359 325.268C31.2359 325.268 26.8251 326.095 26.5742 328.711C26.3233 331.327 30.7745 329.996 31.2359 325.268Z" fill="#404B7C"/>
<path d="M31.9805 326.56C31.9805 326.56 34.8859 323.006 36.5693 324.102C38.2527 325.197 35.2178 328.223 31.9805 326.56Z" fill="#404B7C"/>
<path d="M178.84 335.645C178.84 335.645 152.399 311.549 165 281.055C168.062 286.852 171.478 292.464 175.23 297.862C181.81 307.46 185.047 319.405 178.84 335.645Z" fill="#9AB3DA"/>
<path d="M178.111 332.73C178.038 332.73 177.967 332.711 177.904 332.675C177.842 332.639 177.79 332.587 177.755 332.525C167.234 313.858 164.677 285.995 164.652 285.712C164.648 285.66 164.654 285.608 164.67 285.558C164.687 285.509 164.713 285.463 164.748 285.424C164.782 285.384 164.824 285.352 164.872 285.328C164.919 285.304 164.971 285.29 165.025 285.286C165.131 285.28 165.237 285.314 165.318 285.381C165.4 285.449 165.451 285.545 165.462 285.649C165.462 285.924 167.995 313.629 178.467 332.139C178.503 332.199 178.522 332.268 178.522 332.337C178.521 332.407 178.502 332.475 178.466 332.535C178.43 332.595 178.378 332.645 178.316 332.679C178.253 332.713 178.183 332.731 178.111 332.73Z" fill="#404B7C"/>
<path d="M178.84 335.645C178.84 335.645 181.503 303.165 211.132 299.194C207.959 304.466 205.456 310.094 203.678 315.954C200.845 325.449 193.569 335.645 178.84 335.645Z" fill="#9AB3DA"/>
<path d="M180.847 333.935H180.725C180.623 333.903 180.539 333.832 180.49 333.739C180.442 333.646 180.433 333.538 180.466 333.439C186.828 314.291 207.425 301.369 207.635 301.235C207.725 301.185 207.832 301.17 207.932 301.194C208.033 301.218 208.12 301.279 208.176 301.364C208.232 301.449 208.253 301.551 208.233 301.65C208.214 301.749 208.156 301.838 208.072 301.897C207.87 302.023 187.508 314.803 181.235 333.675C181.207 333.753 181.154 333.819 181.084 333.866C181.014 333.913 180.931 333.937 180.847 333.935Z" fill="#404B7C"/>
<path d="M178.84 335.646C178.84 335.646 171.92 321.462 175.643 302.299C179.366 283.135 201.541 271.032 201.541 271.032C201.541 271.032 200.125 277.076 200.473 287.965C200.821 298.855 198.887 321.825 178.84 335.646Z" fill="#404B7C"/>
<path d="M179.018 333.1C178.913 333.1 178.813 333.061 178.737 332.99C178.662 332.92 178.617 332.824 178.613 332.722C177.205 299.95 196.782 276.54 196.985 276.303C197.053 276.223 197.152 276.172 197.259 276.163C197.366 276.153 197.473 276.185 197.555 276.252C197.638 276.319 197.69 276.415 197.7 276.519C197.71 276.623 197.676 276.727 197.608 276.808C197.414 277.036 178.03 300.226 179.422 332.69C179.424 332.742 179.416 332.794 179.398 332.842C179.379 332.891 179.351 332.936 179.315 332.974C179.279 333.012 179.236 333.042 179.188 333.064C179.139 333.086 179.087 333.098 179.034 333.1H179.018Z" fill="#9AB3DA"/>
<path d="M208.202 336.039H166.247C166.139 336.039 166.036 335.998 165.961 335.924C165.885 335.85 165.842 335.75 165.842 335.645C165.842 335.541 165.885 335.441 165.961 335.367C166.036 335.293 166.139 335.251 166.247 335.251H208.202C208.309 335.251 208.412 335.293 208.488 335.367C208.564 335.441 208.607 335.541 208.607 335.645C208.607 335.75 208.564 335.85 208.488 335.924C208.412 335.998 208.309 336.039 208.202 336.039Z" fill="#404B7C"/>
<path d="M92.2669 336.039H50.3116C50.2043 336.039 50.1014 335.998 50.0255 335.924C49.9496 335.85 49.907 335.75 49.907 335.645C49.907 335.541 49.9496 335.441 50.0255 335.367C50.1014 335.293 50.2043 335.251 50.3116 335.251H92.2669C92.3742 335.251 92.4771 335.293 92.553 335.367C92.6289 335.441 92.6715 335.541 92.6715 335.645C92.6715 335.75 92.6289 335.85 92.553 335.924C92.4771 335.998 92.3742 336.039 92.2669 336.039Z" fill="#404B7C"/>
<path d="M181.826 338.206H116.369C116.261 338.206 116.158 338.165 116.082 338.091C116.007 338.017 115.964 337.917 115.964 337.812C115.964 337.708 116.007 337.607 116.082 337.534C116.158 337.46 116.261 337.418 116.369 337.418H181.826C181.934 337.418 182.037 337.46 182.113 337.534C182.188 337.607 182.231 337.708 182.231 337.812C182.231 337.917 182.188 338.017 182.113 338.091C182.037 338.165 181.934 338.206 181.826 338.206Z" fill="#404B7C"/>
<path d="M47.0418 338.206H30.046C29.9387 338.206 29.8358 338.165 29.7599 338.091C29.684 338.017 29.6414 337.917 29.6414 337.812C29.6414 337.708 29.684 337.607 29.7599 337.534C29.8358 337.46 29.9387 337.418 30.046 337.418H47.0418C47.1491 337.418 47.252 337.46 47.3279 337.534C47.4038 337.607 47.4464 337.708 47.4464 337.812C47.4464 337.917 47.4038 338.017 47.3279 338.091C47.252 338.165 47.1491 338.206 47.0418 338.206Z" fill="#404B7C"/>
<path d="M127.48 302.716L128.694 312.463H135.476L135.573 302.417L127.48 302.716Z" fill="#ECBDBB"/>
<path d="M165.017 332.454H123.636C123.636 332.454 123.555 330.232 123.814 326.844C124.176 321.167 125.341 315.567 127.278 310.202H136.383C139.925 314.493 144.839 317.508 150.344 318.767C157.708 320.54 162.532 321.47 164.28 326.844C164.817 328.666 165.066 330.558 165.017 332.454Z" fill="#404B7C"/>
<path d="M165.017 332.454H123.636C123.636 332.454 123.555 330.232 123.814 326.844H164.28C164.817 328.667 165.066 330.558 165.017 332.454Z" fill="#9AB3DA"/>
<path d="M141.506 304.521C135.81 305.525 129.992 305.7 124.243 305.041C124.243 305.041 116.911 244.895 109.821 205.095C109.149 201.336 108.486 197.759 107.822 194.425C107.547 192.991 107.277 191.604 107.013 190.265V160.228C106.984 156.535 107.679 152.871 109.06 149.432C111.221 144.177 115.584 138.259 124.276 138.259C135.234 138.259 139.305 148.298 140.77 154.318C141.289 156.467 141.561 158.666 141.579 160.874C141.636 175.837 142.251 265.816 141.506 304.521Z" fill="#F68D88"/>
<path d="M112.816 189.965L109.821 205.094C109.149 201.336 108.486 197.758 107.822 194.425C109.675 193.109 112.103 192.03 112.816 189.965Z" fill="#404B7C"/>
<path d="M139.118 179.241C139.075 179.249 139.032 179.249 138.989 179.241C132.449 176.712 133.364 166.334 133.413 165.893C133.423 165.804 133.468 165.722 133.539 165.665C133.61 165.607 133.701 165.579 133.793 165.586C133.839 165.59 133.883 165.602 133.924 165.623C133.965 165.644 134.001 165.672 134.03 165.707C134.059 165.741 134.081 165.781 134.095 165.824C134.108 165.867 134.113 165.911 134.109 165.956C134.109 166.058 133.194 176.271 139.256 178.611C139.319 178.647 139.37 178.701 139.4 178.766C139.43 178.832 139.437 178.905 139.422 178.975C139.407 179.045 139.369 179.108 139.315 179.156C139.26 179.204 139.191 179.234 139.118 179.241Z" fill="#ECBDBB"/>
<path d="M128.557 302.227C128.468 302.228 128.383 302.195 128.319 302.137C128.254 302.078 128.215 301.998 128.209 301.912C125.781 271.292 112.314 191.533 112.176 190.738C112.161 190.649 112.183 190.558 112.237 190.485C112.291 190.411 112.372 190.362 112.463 190.348C112.555 190.333 112.648 190.354 112.723 190.407C112.798 190.459 112.849 190.538 112.864 190.627C113.002 191.415 126.501 271.213 128.905 301.865C128.908 301.91 128.902 301.954 128.888 301.997C128.873 302.039 128.85 302.078 128.82 302.112C128.79 302.145 128.754 302.173 128.712 302.193C128.671 302.213 128.627 302.224 128.581 302.227H128.557Z" fill="#ECBDBB"/>
<path d="M108.599 194.276C108.528 194.275 108.459 194.253 108.401 194.212C108.343 194.172 108.299 194.116 108.275 194.05C108.252 193.985 108.249 193.914 108.268 193.848C108.286 193.781 108.326 193.721 108.38 193.677L111.464 191.258C112.002 190.836 112.442 190.309 112.756 189.71C113.07 189.111 113.25 188.454 113.285 187.783C113.706 179.651 113.916 156.343 113.924 156.114C113.924 156.024 113.961 155.938 114.026 155.875C114.091 155.811 114.18 155.776 114.272 155.776C114.363 155.778 114.449 155.814 114.513 155.877C114.577 155.941 114.612 156.026 114.612 156.114C114.612 156.351 114.394 179.667 113.973 187.814C113.928 188.576 113.72 189.321 113.362 189.999C113.004 190.678 112.503 191.276 111.893 191.754L108.809 194.173C108.754 194.231 108.679 194.267 108.599 194.276Z" fill="#ECBDBB"/>
<path d="M70.3666 302.716L70.1724 312.463H76.9545L78.5003 302.417L70.3666 302.716Z" fill="#ECBDBB"/>
<path d="M84.3679 321.328C79.6171 317.096 78.3708 310.202 78.3708 310.202H69.2659C66.9836 316.19 64.7256 322.486 64.41 326.844C64.151 330.232 64.2319 332.454 64.2319 332.454H89.2076C89.1509 327.025 88.633 325.118 84.3679 321.328Z" fill="#404B7C"/>
<path d="M64.41 326.844C64.151 330.232 64.2319 332.454 64.2319 332.454H89.2076C89.2796 330.564 89.0642 328.673 88.5682 326.844H64.41Z" fill="#9AB3DA"/>
<path d="M108.599 158.021V193.937L81.349 305.403C81.349 305.403 73.2558 307.436 67.5906 303.402C67.5906 303.402 73.9276 178.942 74.4698 159.794C75.0768 138.259 105.896 125.911 108.599 158.021Z" fill="#F68D88"/>
<path d="M108.599 194.276C108.507 194.276 108.418 194.24 108.353 194.176C108.288 194.113 108.251 194.027 108.251 193.937V162.308C108.251 162.218 108.288 162.132 108.353 162.068C108.418 162.005 108.507 161.969 108.599 161.969C108.691 161.969 108.78 162.005 108.845 162.068C108.91 162.132 108.947 162.218 108.947 162.308V193.945C108.945 194.033 108.907 194.117 108.842 194.179C108.777 194.241 108.69 194.276 108.599 194.276Z" fill="#ECBDBB"/>
<path d="M80.1754 179.241C80.0831 179.241 79.9946 179.206 79.9293 179.142C79.8641 179.078 79.8274 178.992 79.8274 178.902C79.8274 178.813 79.8641 178.726 79.9293 178.663C79.9946 178.599 80.0831 178.564 80.1754 178.564C84.222 178.564 86.5124 174.19 86.9413 165.554C86.9434 165.51 86.9545 165.466 86.9739 165.426C86.9934 165.385 87.0208 165.349 87.0546 165.319C87.0884 165.289 87.128 165.266 87.1711 165.251C87.2141 165.236 87.2598 165.229 87.3055 165.231C87.3512 165.233 87.3961 165.244 87.4375 165.263C87.479 165.282 87.5162 165.308 87.547 165.341C87.5778 165.374 87.6017 165.413 87.6172 165.455C87.6327 165.497 87.6395 165.541 87.6374 165.586C87.176 174.647 84.6671 179.241 80.1754 179.241Z" fill="#ECBDBB"/>
<path d="M71.0949 302.228C71.0492 302.225 71.0045 302.213 70.9634 302.193C70.9224 302.173 70.8858 302.146 70.8557 302.112C70.8256 302.078 70.8026 302.039 70.7881 301.997C70.7736 301.954 70.7679 301.91 70.7712 301.865L80.8877 164.758C80.8897 164.713 80.901 164.669 80.9211 164.629C80.9411 164.588 80.9694 164.552 81.0042 164.523C81.0391 164.493 81.0797 164.471 81.1237 164.457C81.1677 164.444 81.214 164.439 81.26 164.443C81.3057 164.446 81.3504 164.458 81.3915 164.478C81.4325 164.498 81.4691 164.525 81.4992 164.559C81.5293 164.593 81.5522 164.632 81.5667 164.674C81.5812 164.716 81.587 164.761 81.5837 164.806L71.4672 301.912C71.4641 301.957 71.452 302.001 71.4316 302.04C71.4112 302.08 71.3829 302.116 71.3483 302.145C71.3137 302.175 71.2735 302.197 71.23 302.211C71.1866 302.225 71.1406 302.231 71.0949 302.228Z" fill="#ECBDBB"/>
<path d="M139.119 57.5549C139.119 57.5549 162.589 88.8767 167.68 106.212C172.77 123.547 153.783 126.699 140.43 104.833C127.076 82.967 122.018 71.3444 122.018 71.3444L139.119 57.5549Z" fill="#9AB3DA"/>
<path d="M146.637 161.898C102.529 169.644 69.6138 161.898 69.6138 161.898C71.2324 144.815 72.6406 125.139 73.6604 107.623C74.8015 88.6483 75.5623 72.2112 75.9103 64.2842C76.0479 61.1324 76.1207 59.2964 76.1207 59.2964C76.1207 59.2964 87.1841 47.4768 106.948 46.6889C118.682 46.2121 130.167 50.0837 139.086 57.5235C147.106 103.06 146.637 161.898 146.637 161.898Z" fill="#9AB3DA"/>
<path d="M144.921 109.632C144.818 109.632 144.719 109.594 144.643 109.525C144.568 109.456 144.523 109.362 144.517 109.262C143.278 90.4606 141.449 73.803 139.078 59.7062C139.061 59.6017 139.087 59.4948 139.151 59.4091C139.214 59.3234 139.311 59.2659 139.418 59.2492C139.525 59.2324 139.635 59.2579 139.723 59.32C139.811 59.382 139.87 59.4756 139.887 59.5801C142.267 73.6848 144.096 90.3819 145.334 109.222C145.337 109.274 145.33 109.326 145.313 109.375C145.295 109.424 145.268 109.469 145.233 109.508C145.198 109.547 145.155 109.578 145.107 109.601C145.059 109.624 145.007 109.637 144.954 109.64L144.921 109.632Z" fill="#404B7C"/>
<path d="M112.524 163.6C112.471 163.596 112.419 163.582 112.372 163.558C112.324 163.535 112.282 163.502 112.247 163.463C112.213 163.423 112.186 163.377 112.17 163.328C112.154 163.278 112.147 163.226 112.152 163.175C114.109 139.847 113.743 116.39 111.059 93.1319C111.052 93.0801 111.056 93.0276 111.07 92.9772C111.084 92.9268 111.108 92.8796 111.141 92.8383C111.173 92.7969 111.214 92.7623 111.261 92.7363C111.307 92.7102 111.358 92.6934 111.411 92.6867C111.465 92.6799 111.518 92.6835 111.57 92.6971C111.622 92.7106 111.67 92.734 111.713 92.7658C111.755 92.7977 111.791 92.8373 111.818 92.8826C111.844 92.9278 111.862 92.9777 111.869 93.0294C114.542 116.345 114.892 139.857 112.913 163.238C112.905 163.334 112.861 163.424 112.789 163.491C112.718 163.558 112.623 163.596 112.524 163.6Z" fill="#404B7C"/>
<path d="M78.1117 158.352C78.0057 158.342 77.9081 158.292 77.8399 158.212C77.7717 158.132 77.7385 158.03 77.7475 157.927C80.4102 128.866 79.5119 93.1869 79.4957 92.8323C79.4957 92.7278 79.5383 92.6276 79.6142 92.5537C79.6901 92.4799 79.793 92.4384 79.9003 92.4384C80.0077 92.4384 80.1106 92.4799 80.1865 92.5537C80.2624 92.6276 80.305 92.7278 80.305 92.8323C80.305 93.1869 81.2195 128.913 78.5488 158.013C78.5346 158.114 78.4813 158.205 78.3999 158.268C78.3186 158.331 78.2154 158.361 78.1117 158.352Z" fill="#404B7C"/>
<path d="M84.0441 89.2392C84.0441 89.2392 84.4568 101.366 73.6929 107.623C74.834 88.6482 75.5948 72.2112 75.9428 64.2842C80.1108 66.0256 85.5737 71.5414 84.0441 89.2392Z" fill="#404B7C"/>
<path d="M104.415 40.5505C88.293 42.2604 82.0208 60.3837 82.0208 60.3837C82.0208 60.3837 99.2431 69.4533 111.674 95.0544C111.674 95.0544 121.006 64.1896 129.908 48.5642C126.325 47.5412 122.812 46.3016 119.387 44.8529C114.127 42.5835 109.675 40.0226 104.415 40.5505Z" fill="#9AB3DA"/>
<path d="M111.674 95.4484C111.598 95.4479 111.523 95.4261 111.458 95.3856C111.394 95.3452 111.342 95.2877 111.31 95.2199C99.0813 70.0049 82.0046 60.8171 81.8347 60.7226C81.7501 60.6789 81.6841 60.6074 81.6486 60.5209C81.613 60.4343 81.6101 60.3382 81.6404 60.2498C82.4938 57.978 83.5783 55.795 84.8777 53.7333C84.9054 53.6888 84.9417 53.65 84.9847 53.6192C85.0278 53.5884 85.0766 53.5661 85.1284 53.5537C85.1803 53.5413 85.2342 53.5389 85.287 53.5467C85.3398 53.5546 85.3905 53.5724 85.4362 53.5993C85.4819 53.6262 85.5217 53.6616 85.5533 53.7035C85.585 53.7454 85.6078 53.793 85.6206 53.8434C85.6334 53.8939 85.6358 53.9464 85.6278 53.9978C85.6197 54.0492 85.6014 54.0985 85.5737 54.143C84.3705 56.07 83.3467 58.0979 82.5145 60.2025C84.8535 61.55 100.182 71.0529 111.585 93.9592C113.139 88.9634 120.439 65.9862 127.772 51.6058C127.824 51.5205 127.908 51.4579 128.006 51.4303C128.105 51.4028 128.21 51.4124 128.301 51.4573C128.392 51.5022 128.463 51.579 128.498 51.6723C128.533 51.7656 128.531 51.8685 128.492 51.9604C120.31 68.0271 112.144 94.8968 112.103 95.1805C112.081 95.2574 112.034 95.3258 111.971 95.3764C111.907 95.4271 111.829 95.4577 111.747 95.4642L111.674 95.4484Z" fill="#404B7C"/>
<path d="M111.432 89.4048C111.432 89.4048 98.4824 69.6503 96.3135 61.8258C96.2568 61.613 96.2001 61.4161 96.1597 61.2269C94.541 53.8673 95.6741 44.6796 104.35 44.0177C108.461 43.6946 115.948 46.7125 117.097 56.6252C117.165 57.2007 117.203 57.7794 117.21 58.3587C117.518 68.9727 111.432 89.4048 111.432 89.4048Z" fill="#F68D88"/>
<path d="M117.21 58.3665C113.852 56.7079 110.139 55.844 106.373 55.845C100.708 57.5155 97.6407 60.3286 96.3135 61.8336C96.2568 61.6209 96.2001 61.4239 96.1597 61.2347C94.541 53.8751 95.6741 44.6874 104.35 44.0255C108.461 43.7024 115.948 46.7203 117.097 56.633C117.165 57.2086 117.203 57.7872 117.21 58.3665Z" fill="#F9F5FD"/>
<path d="M111.092 85.6697C111.009 85.6686 110.929 85.6386 110.866 85.5852C110.804 85.5317 110.763 85.4583 110.752 85.3782L107.037 58.2562C107.027 58.2104 107.027 58.1631 107.036 58.1172C107.046 58.0713 107.065 58.0279 107.093 57.9896C107.121 57.9514 107.157 57.9192 107.198 57.895C107.239 57.8708 107.285 57.8552 107.333 57.8492C107.38 57.8432 107.429 57.8469 107.475 57.8601C107.521 57.8732 107.564 57.8955 107.601 57.9256C107.638 57.9557 107.668 57.993 107.689 58.0349C107.711 58.0769 107.723 58.1228 107.725 58.1696L111.44 85.2915C111.451 85.3802 111.426 85.4698 111.37 85.5407C111.314 85.6116 111.231 85.6579 111.14 85.6697H111.092Z" fill="#ECBDBB"/>
<path d="M128.759 69.1774L120.196 73.1172C120.196 73.1172 124.308 120.986 128.557 133.791C132.806 146.595 163.357 165.113 163.357 165.113L170.844 159.794L128.759 69.1774Z" fill="#DD6B6B"/>
<path d="M128.759 69.1776C128.759 69.1776 132.401 121.381 136.448 130.639C140.494 139.898 170.844 159.794 170.844 159.794C170.844 159.794 191.684 137.534 193.1 127.487C194.516 117.441 191.684 66.2227 191.684 66.2227C191.684 66.2227 157.692 61.1009 128.759 69.1776Z" fill="#F68D88"/>
<path d="M168.756 158.754C168.683 158.754 168.612 158.732 168.553 158.691C161.812 154.137 139.547 138.661 136.1 130.773C132.579 122.72 129.423 83.2823 128.54 71.3839C128.537 71.3394 128.543 71.2947 128.557 71.2523C128.572 71.21 128.595 71.1709 128.625 71.1372C128.655 71.1035 128.692 71.0759 128.733 71.0561C128.774 71.0362 128.818 71.0244 128.864 71.0214C128.91 71.0171 128.956 71.0219 129 71.0356C129.044 71.0493 129.085 71.0716 129.12 71.1011C129.155 71.1306 129.183 71.1667 129.203 71.2072C129.223 71.2477 129.234 71.2917 129.236 71.3366C129.868 79.7837 133.178 122.35 136.739 130.505C140.114 138.227 162.249 153.601 168.95 158.132C169.013 158.172 169.061 158.231 169.087 158.299C169.112 158.368 169.114 158.444 169.093 158.514C169.071 158.584 169.026 158.645 168.965 158.689C168.904 158.732 168.831 158.755 168.756 158.754Z" fill="#ECBDBB"/>
<path d="M147.98 101.587C147.98 101.587 147.373 91.8395 146.969 84.5508C146.564 77.262 152.836 73.1173 160.662 73.2198C168.489 73.3222 173.312 77.3566 173.814 83.6604C174.316 89.9641 175.028 100.996 175.028 100.996L170.075 101.098C170.075 101.098 169.978 88.1991 169.371 84.1568C168.764 80.1145 166.133 77.3251 160.468 77.5221C154.803 77.7191 152.14 80.6739 152.237 84.6138C152.335 88.5536 153.379 101.484 153.379 101.484L147.98 101.587Z" fill="#F9D4D4"/>
<path d="M141.91 101.09C141.91 101.09 143.837 126.108 144.646 134.09C144.646 134.09 167.914 134.287 184.303 132.223C184.303 132.223 184.707 110.357 183.696 100.113C183.696 100.105 160.525 99.3173 141.91 101.09Z" fill="#F9D4D4"/>
<path d="M169.16 110.38C169.148 111.474 168.792 112.538 168.141 113.429C167.49 114.321 166.575 114.997 165.519 115.368V128.606H162.281V115.471C161.279 115.173 160.403 114.568 159.783 113.746C159.163 112.924 158.833 111.928 158.842 110.908C158.818 109.573 159.322 108.279 160.25 107.295C161.177 106.311 162.458 105.712 163.827 105.621C164.502 105.576 165.179 105.665 165.818 105.883C166.457 106.101 167.043 106.442 167.542 106.887C168.041 107.333 168.441 107.872 168.72 108.472C168.998 109.073 169.148 109.722 169.16 110.38Z" fill="#F68D88"/>
<path d="M182.077 41.9925L173.183 48.4066L164.288 41.9925V29.188L173.183 22.7739L182.077 29.188V41.9925Z" fill="#9AB3DA"/>
<path d="M215.972 96.0236L209.772 100.484L203.565 96.0236V87.088L209.772 82.6202L215.972 87.088V96.0236Z" fill="#404B7C"/>
<path d="M224 83.0144L219.986 85.9062L215.971 83.0144V77.2385L219.986 74.3467L224 77.2385V83.0144Z" fill="#9AB3DA"/>
<path d="M199.567 162.323L193.497 166.689L187.435 162.323V153.585L193.497 149.219L199.567 153.585V162.323Z" fill="#9AB3DA"/>
<path d="M75.0769 158.415C69.5545 158.415 64.1562 160.01 59.5645 162.997C54.9728 165.984 51.394 170.229 49.2807 175.197C47.1674 180.164 46.6144 185.63 47.6918 190.904C48.7692 196.177 51.4284 201.021 55.3333 204.823C59.2382 208.625 64.2134 211.214 69.6296 212.263C75.0459 213.312 80.66 212.773 85.762 210.716C90.864 208.658 95.2248 205.174 98.2928 200.703C101.361 196.233 102.998 190.977 102.998 185.6C102.998 178.39 100.057 171.476 94.8204 166.377C89.5841 161.279 82.4821 158.415 75.0769 158.415ZM75.0769 205.496C71.0351 205.496 67.0842 204.329 63.7236 202.143C60.363 199.957 57.7438 196.85 56.1971 193.214C54.6504 189.579 54.2457 185.578 55.0342 181.719C55.8227 177.859 57.769 174.314 60.6269 171.531C63.4848 168.749 67.1261 166.854 71.0901 166.086C75.0542 165.318 79.1631 165.712 82.8971 167.218C86.6312 168.724 89.8228 171.274 92.0683 174.546C94.3137 177.818 95.5122 181.665 95.5122 185.6C95.5133 188.213 94.9855 190.801 93.9589 193.215C92.9323 195.63 91.427 197.823 89.5292 199.671C87.6314 201.519 85.3782 202.984 82.8984 203.984C80.4186 204.983 77.7608 205.497 75.0769 205.496Z" fill="#404B7C"/>
<path d="M78.9615 211.012H71.2002C70.4001 211.012 69.7515 211.643 69.7515 212.422V337.024C69.7515 337.803 70.4001 338.435 71.2002 338.435H78.9615C79.7616 338.435 80.4102 337.803 80.4102 337.024V212.422C80.4102 211.643 79.7616 211.012 78.9615 211.012Z" fill="#9AB3DA"/>
<path d="M63.2446 305.829H69.7516V332.919H63.2446V305.829Z" fill="#404B7C"/>
<path d="M63.2443 305.34V333.415C63.2475 333.793 63.1739 334.167 63.0277 334.517C62.8815 334.867 62.6656 335.185 62.3925 335.453C62.1194 335.721 61.7944 335.934 61.4364 336.079C61.0784 336.225 60.6944 336.299 60.3065 336.299H48.5713C47.7943 336.299 47.0491 335.999 46.4997 335.464C45.9503 334.929 45.6416 334.203 45.6416 333.447V329.105H54.5927C55.0349 329.105 55.4589 328.934 55.7716 328.63C56.0842 328.325 56.2599 327.912 56.2599 327.482V324.33C56.2599 323.9 56.0842 323.487 55.7716 323.182C55.4589 322.878 55.0349 322.707 54.5927 322.707H45.6416V316.104H54.5927C55.0349 316.104 55.4589 315.933 55.7716 315.628C56.0842 315.324 56.2599 314.911 56.2599 314.48V311.329C56.2599 310.898 56.0842 310.485 55.7716 310.181C55.4589 309.876 55.0349 309.705 54.5927 309.705H45.6416V305.371C45.6416 304.615 45.9503 303.889 46.4997 303.355C47.0491 302.82 47.7943 302.519 48.5713 302.519H60.3065C61.0787 302.519 61.8199 302.815 62.3697 303.343C62.9195 303.871 63.2337 304.588 63.2443 305.34Z" fill="#9AB3DA"/>
<path d="M81.5514 201.493H68.6022C67.8022 201.493 67.1536 202.125 67.1536 202.904V212.753C67.1536 213.532 67.8022 214.164 68.6022 214.164H81.5514C82.3515 214.164 83.0001 213.532 83.0001 212.753V202.904C83.0001 202.125 82.3515 201.493 81.5514 201.493Z" fill="#404B7C"/>
<path d="M76.1529 59.3278C76.1529 59.3278 50.3194 82.4389 42.3638 104.502C42.3638 104.502 45.334 126.699 53.4272 141.537L67.0481 136.943L63.6732 108.316L83.7687 90.9805C83.7687 90.9805 88.4951 65.4976 76.1529 59.3278Z" fill="#9AB3DA"/>
<path d="M83.7767 91.3746H83.7039C83.5989 91.3554 83.5059 91.2966 83.4453 91.211C83.3846 91.1254 83.3612 91.0199 83.3801 90.9176C83.4206 90.6969 87.3782 68.6574 78.0143 60.9747C77.9734 60.9416 77.9396 60.901 77.9148 60.8551C77.89 60.8093 77.8748 60.7591 77.8699 60.7075C77.865 60.656 77.8706 60.604 77.8863 60.5545C77.9021 60.505 77.9277 60.459 77.9617 60.4192C77.9958 60.3793 78.0375 60.3464 78.0846 60.3223C78.1316 60.2981 78.1831 60.2833 78.2361 60.2785C78.2891 60.2738 78.3425 60.2792 78.3934 60.2946C78.4442 60.3099 78.4914 60.3349 78.5323 60.368C88.2442 68.3107 84.3432 90.0902 84.1976 91.02C84.1873 91.1203 84.138 91.213 84.0597 91.2789C83.9814 91.3449 83.8801 91.3791 83.7767 91.3746Z" fill="#404B7C"/>
<path d="M62.4353 108.182C62.3785 108.182 62.3225 108.169 62.2709 108.146C62.2193 108.123 62.1733 108.09 62.1358 108.048C57.9597 103.509 49.7856 103.746 49.7046 103.746C49.6512 103.749 49.5977 103.742 49.5473 103.724C49.4969 103.707 49.4506 103.68 49.4113 103.644C49.372 103.609 49.3404 103.566 49.3185 103.519C49.2966 103.471 49.2848 103.42 49.2838 103.368C49.2816 103.316 49.2899 103.264 49.3083 103.216C49.3267 103.167 49.3547 103.122 49.3908 103.084C49.4268 103.046 49.4703 103.016 49.5186 102.994C49.5669 102.972 49.6191 102.96 49.6723 102.958C50.0203 102.958 58.3077 102.714 62.7347 107.52C62.7884 107.577 62.824 107.647 62.8371 107.723C62.8502 107.799 62.8402 107.877 62.8083 107.947C62.7765 108.017 62.7242 108.077 62.6579 108.119C62.5916 108.161 62.5142 108.183 62.4353 108.182Z" fill="#404B7C"/>
<path d="M50.093 139.701C50.093 139.701 58.5909 132.215 69.4196 133.003L71.0382 141.182C71.0382 141.182 67.0969 148.471 55.0541 149.164C53.0756 146.181 51.4134 143.011 50.093 139.701Z" fill="#404B7C"/>
<path d="M81.2114 168.068C80.742 168.99 79.1234 169.447 78.654 167.343C78.654 167.343 78.3788 168.919 77.1001 169.053C75.8214 169.187 75.4814 167.343 75.4814 167.343C75.4814 167.343 74.5345 169.187 73.3206 168.99C72.1066 168.793 72.1794 166.752 72.1794 166.752C72.1794 166.752 70.7631 168.265 69.7514 167.414C68.7398 166.563 69.274 163.734 69.4115 161.37C69.4115 161.37 62.1276 155.129 61.723 153.23C61.4793 151.907 61.4113 150.559 61.5207 149.219L59.0037 144.996C61.5089 143.32 64.3497 142.179 67.3397 141.647L70.2209 147.32C70.2209 147.32 79.5928 154.806 80.742 156.051C81.8913 157.296 81.6889 167.146 81.2114 168.068Z" fill="#ECBDBB"/>
<path d="M72.5194 165.633H72.4465C72.3405 165.621 72.2435 165.569 72.1768 165.488C72.1101 165.406 72.0791 165.303 72.0904 165.199C72.0904 165.199 72.4951 161.669 72.5922 159.589C72.592 159.537 72.603 159.485 72.6246 159.437C72.6461 159.389 72.6776 159.345 72.7172 159.31C72.7568 159.274 72.8035 159.247 72.8545 159.23C72.9054 159.213 72.9594 159.207 73.0131 159.211C73.0662 159.213 73.1185 159.225 73.1668 159.247C73.2151 159.269 73.2585 159.299 73.2946 159.337C73.3306 159.375 73.3587 159.42 73.377 159.469C73.3954 159.517 73.4037 159.569 73.4015 159.621C73.3044 161.725 72.8998 165.247 72.8917 165.286C72.8806 165.377 72.8374 165.461 72.7695 165.525C72.7016 165.588 72.6131 165.626 72.5194 165.633Z" fill="#404B7C"/>
<path d="M75.6838 165.972H75.6353C75.5292 165.96 75.4322 165.908 75.3655 165.826C75.2988 165.745 75.2678 165.642 75.2792 165.538C75.2792 165.538 75.7324 161.693 75.7324 159.794C75.7324 159.69 75.775 159.589 75.8509 159.515C75.9268 159.442 76.0297 159.4 76.137 159.4C76.2444 159.4 76.3473 159.442 76.4232 159.515C76.4991 159.589 76.5417 159.69 76.5417 159.794C76.5417 161.74 76.1047 165.467 76.0804 165.625C76.0686 165.72 76.0219 165.807 75.949 165.871C75.8761 165.935 75.7818 165.97 75.6838 165.972Z" fill="#404B7C"/>
<path d="M78.6945 165.412C78.6413 165.408 78.5894 165.394 78.5419 165.371C78.4943 165.347 78.452 165.314 78.4174 165.275C78.3828 165.235 78.3566 165.19 78.3402 165.14C78.3239 165.091 78.3178 165.039 78.3222 164.987C78.3222 164.987 78.5974 161.835 78.5974 160.046C78.5974 159.942 78.64 159.841 78.7159 159.768C78.7918 159.694 78.8947 159.652 79.002 159.652C79.1094 159.652 79.2123 159.694 79.2882 159.768C79.3641 159.841 79.4067 159.942 79.4067 160.046C79.4067 161.843 79.1396 164.924 79.1234 165.05C79.1151 165.153 79.0655 165.249 78.9852 165.317C78.905 165.384 78.8005 165.419 78.6945 165.412Z" fill="#404B7C"/>
<path d="M55.9931 147.974C55.9173 147.974 55.843 147.953 55.7789 147.914C55.7148 147.874 55.6633 147.818 55.6304 147.751C55.5975 147.685 55.5844 147.611 55.5928 147.537C55.6011 147.464 55.6305 147.394 55.6775 147.336C56.5834 146.317 57.626 145.421 58.7772 144.673C61.3269 142.963 64.2207 141.8 67.267 141.261C67.9792 141.127 68.7319 141.017 69.5169 140.946C69.6242 140.936 69.731 140.969 69.8137 141.036C69.8964 141.103 69.9483 141.2 69.958 141.304C69.9676 141.409 69.9343 141.513 69.8652 141.593C69.7961 141.674 69.6971 141.724 69.5897 141.734C68.8371 141.805 68.1087 141.907 67.4207 142.033C64.4849 142.551 61.6958 143.671 59.2385 145.319C58.1566 146.027 57.1744 146.869 56.3169 147.825C56.2783 147.872 56.2291 147.91 56.1729 147.936C56.1168 147.962 56.0553 147.975 55.9931 147.974Z" fill="#9AB3DA"/>
<path d="M109.004 50.6602C108.921 51.315 108.698 51.9457 108.349 52.5116C108.001 53.0775 107.534 53.5661 106.98 53.946C101.177 53.749 101.177 49.8722 101.177 49.8722L101.445 38.9115L101.525 35.4287L101.582 32.9939L108.599 35.8857L108.737 40.9366L108.809 43.5921L109.004 50.6602Z" fill="#ECBDBB"/>
<path d="M108.809 43.5921C104.9 42.8514 102.683 40.9681 101.444 38.9115L101.525 35.4287L101.582 32.9939L108.599 35.8857L108.736 40.9366L108.809 43.5921Z" fill="#404B7C"/>
<path d="M114.159 28.7073C114.304 28.2639 114.543 27.8555 114.862 27.5088C115.181 27.1621 115.571 26.8851 116.008 26.6961C116.444 26.507 116.917 26.4101 117.395 26.4118C117.873 26.4135 118.345 26.5137 118.78 26.7058C122.325 27.9508 119.387 35.145 114.434 33.8606L114.159 28.7073Z" fill="#ECBDBB"/>
<path d="M114.903 32.0562H114.774C114.672 32.0238 114.588 31.9533 114.539 31.8602C114.49 31.7671 114.482 31.6591 114.515 31.5598C114.555 31.4337 115.608 28.4079 118.4 28.14C118.507 28.1306 118.614 28.1631 118.697 28.2303C118.779 28.2976 118.831 28.3941 118.841 28.4985C118.85 28.603 118.817 28.707 118.748 28.7875C118.679 28.8681 118.58 28.9186 118.473 28.928C116.198 29.1329 115.292 31.7804 115.276 31.812C115.245 31.8839 115.194 31.9455 115.128 31.989C115.061 32.0324 114.983 32.0558 114.903 32.0562Z" fill="#404B7C"/>
<path d="M116.959 31.5913C116.852 31.5913 116.749 31.5498 116.673 31.4759C116.597 31.402 116.555 31.3018 116.555 31.1973C116.527 30.599 116.384 30.011 116.134 29.4638C116.108 29.4162 116.093 29.364 116.088 29.3103C116.084 29.2567 116.091 29.2028 116.109 29.152C116.127 29.1011 116.156 29.0544 116.193 29.0146C116.23 28.9749 116.275 28.943 116.326 28.9209C116.376 28.8988 116.43 28.887 116.486 28.8862C116.541 28.8853 116.596 28.8955 116.647 28.9161C116.698 28.9367 116.744 28.9673 116.782 29.0059C116.821 29.0445 116.851 29.0904 116.87 29.1407C117.169 29.7889 117.337 30.4872 117.364 31.1973C117.364 31.3018 117.321 31.402 117.245 31.4759C117.17 31.5498 117.067 31.5913 116.959 31.5913Z" fill="#404B7C"/>
<path d="M116.821 16.6909C116.821 16.6909 119.921 20.2998 119.921 22.0728C119.921 23.8457 114.458 29.8894 114.458 29.8894L112.912 17.8098L116.821 16.6909Z" fill="#404B7C"/>
<path d="M96.184 23.1916C95.6741 30.9294 101.93 40.259 108.631 40.4639C115.332 40.6687 117.631 24.2474 115.268 18.4007C112.905 12.554 97.0661 9.86698 96.184 23.1916Z" fill="#ECBDBB"/>
<path d="M100.101 32.0562L99.154 28.991C99.154 28.991 102.254 27.2811 102.658 21.3083C102.658 21.3083 111.423 24.3972 118.303 18.3534C125.182 12.3097 122.414 0.955065 120.666 0.0961775C118.918 -0.76271 108.785 4.27242 104.819 9.55182C104.819 9.55182 105.969 5.02099 102.731 6.00595C99.4939 6.99092 95.1074 16.5648 95.1074 16.5648C95.1074 16.5648 90.7209 14.8549 88.8999 18.2037C87.0789 21.5526 98.1586 32.0562 98.1586 32.0562H100.093H100.101Z" fill="#404B7C"/>
<path d="M98.4985 30.9767C98.4985 30.9767 96.6694 25.9889 92.8332 26.3907C88.997 26.7926 88.6652 38.2103 99.8419 33.837L98.4985 30.9767Z" fill="#ECBDBB"/>
<path d="M98.1666 32.7733C98.0968 32.7737 98.028 32.7564 97.967 32.7233C97.9061 32.6902 97.8549 32.6422 97.8186 32.5841C95.4878 28.9043 92.6066 29.7868 92.5742 29.7947C92.5237 29.8113 92.4704 29.818 92.4172 29.8145C92.3641 29.811 92.3122 29.7973 92.2644 29.7742C92.2167 29.7512 92.1741 29.7192 92.1391 29.6802C92.1041 29.6411 92.0773 29.5957 92.0603 29.5465C92.0433 29.4974 92.0364 29.4454 92.04 29.3937C92.0436 29.3419 92.0576 29.2914 92.0813 29.2449C92.105 29.1985 92.1378 29.157 92.178 29.1229C92.2181 29.0888 92.2647 29.0627 92.3152 29.0462C92.3152 29.0462 95.8358 27.9588 98.5065 32.198C98.5378 32.2567 98.5535 32.3221 98.552 32.3882C98.5506 32.4542 98.5321 32.5189 98.4982 32.5762C98.4644 32.6335 98.4162 32.6816 98.3583 32.716C98.3003 32.7504 98.2344 32.7701 98.1666 32.7733Z" fill="#404B7C"/>
<path d="M94.7756 33.0649C94.68 33.0642 94.5878 33.0306 94.5152 32.97C94.4426 32.9095 94.3944 32.8258 94.3791 32.7339C94.24 31.6365 94.4371 30.5235 94.9456 29.5348C94.967 29.4848 94.9987 29.4396 95.0389 29.402C95.079 29.3645 95.1267 29.3355 95.1789 29.3167C95.2311 29.2979 95.2867 29.2898 95.3422 29.2929C95.3978 29.296 95.4521 29.3102 95.5017 29.3346C95.5514 29.3591 95.5954 29.3932 95.6308 29.435C95.6663 29.4767 95.6926 29.5251 95.708 29.5772C95.7234 29.6292 95.7276 29.6838 95.7204 29.7375C95.7131 29.7912 95.6946 29.8429 95.6659 29.8893C95.2357 30.7274 95.0642 31.669 95.1722 32.6C95.1815 32.6512 95.1802 32.7037 95.1686 32.7545C95.1569 32.8053 95.135 32.8533 95.1041 32.8958C95.0733 32.9383 95.0341 32.9744 94.9888 33.0021C94.9436 33.0298 94.8931 33.0484 94.8404 33.057H94.7675L94.7756 33.0649Z" fill="#404B7C"/>
<path d="M104.091 26.4223C104.091 26.4223 106.389 24.996 107.49 26.7059C107.571 26.5909 107.69 26.5073 107.828 26.4699C107.966 26.4324 108.112 26.4434 108.243 26.501C108.663 26.7374 107.919 28.0218 107.919 28.0218C106.765 27.2456 105.464 26.7017 104.091 26.4223Z" fill="#404B7C"/>
<path d="M114.102 27.1394C114.102 27.1394 112.346 25.4216 111.723 26.8478C111.649 26.7691 111.553 26.713 111.446 26.6864C111.34 26.6598 111.228 26.6639 111.124 26.6981C110.663 26.9818 111.521 28.0928 111.521 28.0928C112.254 27.5142 113.159 27.18 114.102 27.1394Z" fill="#404B7C"/>
<path d="M106.475 30.9274C107.038 30.9228 107.49 30.3687 107.484 29.6898C107.478 29.011 107.017 28.4644 106.454 28.469C105.891 28.4736 105.439 29.0276 105.445 29.7065C105.451 30.3853 105.912 30.9319 106.475 30.9274Z" fill="#404B7C"/>
<path d="M106.681 29.5233C106.833 29.5221 106.955 29.4011 106.954 29.2532C106.953 29.1052 106.828 28.9863 106.677 28.9875C106.525 28.9887 106.402 29.1097 106.404 29.2576C106.405 29.4056 106.529 29.5245 106.681 29.5233Z" fill="white"/>
<path d="M112.504 30.8705C113.067 30.8659 113.518 30.3118 113.513 29.633C113.507 28.9541 113.046 28.4075 112.482 28.4121C111.919 28.4167 111.467 28.9707 111.473 29.6496C111.479 30.3285 111.94 30.8751 112.504 30.8705Z" fill="#404B7C"/>
<path d="M112.71 29.474C112.862 29.4727 112.984 29.3518 112.983 29.2038C112.982 29.0559 112.858 28.9369 112.706 28.9382C112.554 28.9394 112.431 29.0604 112.433 29.2083C112.434 29.3563 112.558 29.4752 112.71 29.474Z" fill="white"/>
<path d="M109.975 33.8923C109.776 33.8935 109.578 33.8723 109.384 33.8293C109.277 33.8053 109.183 33.7407 109.125 33.6498C109.067 33.559 109.048 33.4492 109.072 33.3447C109.097 33.2402 109.163 33.1495 109.257 33.0927C109.35 33.0358 109.463 33.0173 109.57 33.0413C109.57 33.0413 110.614 33.2698 110.865 32.6395C110.881 32.6119 110.89 32.5807 110.89 32.5489C110.89 32.517 110.881 32.4858 110.865 32.4582C110.565 32.2604 110.206 32.1661 109.845 32.1903C109.739 32.1903 109.638 32.1499 109.562 32.0777C109.486 32.0055 109.443 31.9073 109.441 31.8042V29.393C109.44 29.3413 109.449 29.2898 109.468 29.2416C109.488 29.1934 109.517 29.1494 109.553 29.1121C109.59 29.0748 109.634 29.0449 109.683 29.0242C109.732 29.0034 109.784 28.9922 109.837 28.9912C109.891 28.989 109.944 28.9975 109.994 29.0159C110.044 29.0344 110.09 29.0625 110.128 29.0985C110.167 29.1346 110.197 29.1779 110.218 29.2258C110.239 29.2737 110.25 29.3252 110.25 29.3773V31.426C110.494 31.4358 110.734 31.4932 110.955 31.5947C111.176 31.6962 111.374 31.8398 111.537 32.017C111.628 32.1489 111.683 32.3013 111.698 32.4599C111.712 32.6184 111.684 32.7778 111.618 32.9231C111.486 33.2343 111.255 33.4963 110.96 33.6707C110.664 33.8451 110.319 33.9228 109.975 33.8923Z" fill="#404B7C"/>
<path d="M110.072 37.0835C110.002 37.0839 109.933 37.0667 109.872 37.0335C109.811 37.0004 109.76 36.9524 109.724 36.8944C108.574 35.0426 105.677 35.673 105.677 35.6809C105.57 35.7049 105.457 35.6865 105.364 35.6296C105.27 35.5727 105.204 35.482 105.179 35.3775C105.155 35.273 105.174 35.1633 105.232 35.0724C105.29 34.9815 105.384 34.917 105.491 34.8929C105.628 34.8929 108.979 34.105 110.436 36.4689C110.479 36.5301 110.503 36.6019 110.506 36.6759C110.508 36.7499 110.49 36.8233 110.452 36.8874C110.414 36.9516 110.358 37.004 110.291 37.0387C110.223 37.0734 110.148 37.0889 110.072 37.0835Z" fill="#404B7C"/>
<path d="M178.468 183.536C177.877 183.536 177.3 183.365 176.808 183.046C176.317 182.726 175.935 182.272 175.709 181.741C175.483 181.209 175.423 180.625 175.539 180.061C175.654 179.497 175.938 178.979 176.356 178.572C176.774 178.165 177.306 177.888 177.885 177.776C178.464 177.664 179.065 177.722 179.61 177.942C180.156 178.162 180.623 178.534 180.951 179.013C181.279 179.491 181.454 180.053 181.454 180.628C181.454 181.399 181.139 182.139 180.579 182.684C180.019 183.229 179.26 183.536 178.468 183.536ZM178.468 178.516C178.037 178.516 177.616 178.641 177.258 178.873C176.9 179.106 176.621 179.437 176.456 179.825C176.291 180.212 176.248 180.638 176.332 181.049C176.416 181.461 176.624 181.838 176.928 182.135C177.233 182.431 177.621 182.633 178.043 182.715C178.465 182.797 178.903 182.755 179.301 182.594C179.699 182.434 180.039 182.162 180.278 181.813C180.517 181.465 180.645 181.055 180.645 180.636C180.646 180.357 180.59 180.08 180.481 179.822C180.372 179.564 180.212 179.33 180.01 179.132C179.808 178.934 179.567 178.777 179.303 178.67C179.038 178.563 178.754 178.508 178.468 178.508V178.516Z" fill="#9AB3DA"/>
<path d="M149.219 56.8456C148.628 56.8456 148.051 56.6751 147.559 56.3556C147.068 56.0361 146.686 55.582 146.46 55.0507C146.233 54.5194 146.174 53.9348 146.29 53.3708C146.405 52.8067 146.689 52.2887 147.107 51.882C147.525 51.4754 148.057 51.1985 148.636 51.0863C149.215 50.9741 149.816 51.0317 150.361 51.2517C150.907 51.4718 151.374 51.8445 151.702 52.3226C152.03 52.8008 152.205 53.3629 152.205 53.938C152.205 54.7092 151.89 55.4487 151.33 55.994C150.77 56.5393 150.011 56.8456 149.219 56.8456ZM149.219 51.8262C148.788 51.8262 148.367 51.9506 148.009 52.1835C147.651 52.4164 147.372 52.7474 147.207 53.1347C147.042 53.522 146.999 53.9482 147.083 54.3594C147.167 54.7706 147.375 55.1483 147.679 55.4447C147.984 55.7411 148.372 55.943 148.794 56.0248C149.216 56.1066 149.654 56.0646 150.052 55.9042C150.449 55.7437 150.79 55.4721 151.029 55.1235C151.268 54.7749 151.396 54.3651 151.396 53.9459C151.391 53.3865 151.16 52.8514 150.752 52.4573C150.344 52.0631 149.793 51.842 149.219 51.842V51.8262Z" fill="#9AB3DA"/>
<path d="M80.0216 32.2137C79.4309 32.2137 78.8535 32.0431 78.3624 31.7236C77.8713 31.4041 77.4885 30.95 77.2625 30.4187C77.0364 29.8874 76.9773 29.3028 77.0925 28.7388C77.2078 28.1748 77.4922 27.6567 77.9099 27.2501C78.3275 26.8434 78.8596 26.5665 79.4389 26.4543C80.0182 26.3421 80.6187 26.3997 81.1644 26.6198C81.7101 26.8398 82.1765 27.2125 82.5046 27.6907C82.8328 28.1688 83.008 28.731 83.008 29.3061C83.008 30.0772 82.6933 30.8168 82.1333 31.362C81.5732 31.9073 80.8136 32.2137 80.0216 32.2137ZM80.0216 27.1943C79.591 27.1943 79.17 27.3186 78.812 27.5515C78.454 27.7844 78.175 28.1155 78.0102 28.5028C77.8454 28.8901 77.8023 29.3163 77.8863 29.7275C77.9703 30.1386 78.1777 30.5163 78.4821 30.8127C78.7866 31.1092 79.1745 31.3111 79.5968 31.3928C80.0191 31.4746 80.4569 31.4327 80.8547 31.2722C81.2525 31.1118 81.5925 30.8401 81.8317 30.4915C82.0709 30.143 82.1986 29.7332 82.1986 29.3139C82.1986 28.7518 81.9693 28.2126 81.561 27.8151C81.1527 27.4176 80.5989 27.1943 80.0216 27.1943Z" fill="#9AB3DA"/>
<path d="M70.1963 51.3063C69.7705 51.3063 69.3543 51.1833 69.0002 50.953C68.6462 50.7227 68.3703 50.3954 68.2073 50.0124C68.0444 49.6294 68.0018 49.2079 68.0848 48.8014C68.1679 48.3948 68.3729 48.0213 68.674 47.7282C68.9751 47.435 69.3587 47.2354 69.7763 47.1545C70.1939 47.0737 70.6267 47.1152 71.0201 47.2738C71.4135 47.4325 71.7497 47.7011 71.9862 48.0458C72.2228 48.3905 72.349 48.7957 72.349 49.2103C72.349 49.7662 72.1222 50.2993 71.7185 50.6924C71.3148 51.0854 70.7672 51.3063 70.1963 51.3063ZM70.1963 47.9022C69.9305 47.9022 69.6708 47.9789 69.4499 48.1227C69.2289 48.2664 69.0567 48.4707 68.955 48.7097C68.8534 48.9487 68.8268 49.2117 68.8786 49.4654C68.9304 49.7192 69.0584 49.9522 69.2463 50.1352C69.4342 50.3181 69.6735 50.4427 69.9342 50.4932C70.1948 50.5436 70.4649 50.5177 70.7104 50.4187C70.9559 50.3197 71.1657 50.1521 71.3133 49.937C71.4609 49.7219 71.5397 49.469 71.5397 49.2103C71.5397 48.8634 71.3982 48.5306 71.1462 48.2853C70.8943 48.04 70.5526 47.9022 70.1963 47.9022Z" fill="#9AB3DA"/>
<path d="M198.296 38.0052C198.188 38.0052 198.086 37.9637 198.01 37.8898C197.934 37.8159 197.891 37.7157 197.891 37.6112V33.5217C197.891 33.4172 197.934 33.317 198.01 33.2431C198.086 33.1692 198.188 33.1277 198.296 33.1277C198.403 33.1277 198.506 33.1692 198.582 33.2431C198.658 33.317 198.7 33.4172 198.7 33.5217V37.6112C198.7 37.7157 198.658 37.8159 198.582 37.8898C198.506 37.9637 198.403 38.0052 198.296 38.0052Z" fill="#9AB3DA"/>
<path d="M202.674 39.605H199.51C199.402 39.605 199.299 39.5635 199.224 39.4896C199.148 39.4158 199.105 39.3155 199.105 39.2111C199.105 39.1066 199.148 39.0064 199.224 38.9325C199.299 38.8586 199.402 38.8171 199.51 38.8171H202.65C202.703 38.8155 202.756 38.8242 202.806 38.8425C202.855 38.8609 202.901 38.8886 202.94 38.9241C202.978 38.9596 203.009 39.0022 203.031 39.0494C203.053 39.0966 203.065 39.1475 203.067 39.1992C203.068 39.251 203.059 39.3025 203.04 39.3509C203.022 39.3993 202.993 39.4436 202.957 39.4813C202.92 39.519 202.876 39.5493 202.828 39.5705C202.78 39.5918 202.727 39.6035 202.674 39.605Z" fill="#9AB3DA"/>
<path d="M198.296 45.2939C198.188 45.2939 198.086 45.2524 198.01 45.1785C197.934 45.1046 197.891 45.0044 197.891 44.8999V40.8104C197.891 40.7059 197.934 40.6057 198.01 40.5318C198.086 40.4579 198.188 40.4164 198.296 40.4164C198.403 40.4164 198.506 40.4579 198.582 40.5318C198.658 40.6057 198.7 40.7059 198.7 40.8104V44.8999C198.7 45.0044 198.658 45.1046 198.582 45.1785C198.506 45.2524 198.403 45.2939 198.296 45.2939Z" fill="#9AB3DA"/>
<path d="M197.082 39.6049H193.942C193.834 39.6049 193.732 39.5634 193.656 39.4895C193.58 39.4156 193.537 39.3154 193.537 39.2109C193.537 39.1064 193.58 39.0062 193.656 38.9323C193.732 38.8584 193.834 38.8169 193.942 38.8169H197.082C197.189 38.8169 197.292 38.8584 197.368 38.9323C197.444 39.0062 197.487 39.1064 197.487 39.2109C197.487 39.3154 197.444 39.4156 197.368 39.4895C197.292 39.5634 197.189 39.6049 197.082 39.6049Z" fill="#9AB3DA"/>
<path d="M203.435 124.713C203.328 124.713 203.225 124.672 203.149 124.598C203.073 124.524 203.031 124.424 203.031 124.319V120.23C203.031 120.125 203.073 120.025 203.149 119.951C203.225 119.877 203.328 119.836 203.435 119.836C203.543 119.836 203.645 119.877 203.721 119.951C203.797 120.025 203.84 120.125 203.84 120.23V124.335C203.836 124.437 203.791 124.533 203.716 124.604C203.64 124.674 203.54 124.714 203.435 124.713Z" fill="#9AB3DA"/>
<path d="M207.805 126.313H204.665C204.558 126.313 204.455 126.272 204.379 126.198C204.303 126.124 204.26 126.024 204.26 125.919C204.26 125.815 204.303 125.714 204.379 125.641C204.455 125.567 204.558 125.525 204.665 125.525H207.805C207.913 125.525 208.016 125.567 208.091 125.641C208.167 125.714 208.21 125.815 208.21 125.919C208.21 126.024 208.167 126.124 208.091 126.198C208.016 126.272 207.913 126.313 207.805 126.313Z" fill="#9AB3DA"/>
<path d="M203.435 132.002C203.328 132.002 203.225 131.961 203.149 131.887C203.073 131.813 203.031 131.713 203.031 131.608V127.487C203.031 127.383 203.073 127.283 203.149 127.209C203.225 127.135 203.328 127.093 203.435 127.093C203.543 127.093 203.645 127.135 203.721 127.209C203.797 127.283 203.84 127.383 203.84 127.487V131.577C203.844 131.631 203.837 131.686 203.819 131.737C203.801 131.789 203.771 131.836 203.733 131.876C203.695 131.916 203.649 131.948 203.598 131.97C203.547 131.991 203.491 132.002 203.435 132.002Z" fill="#9AB3DA"/>
<path d="M202.205 126.313H199.065C198.957 126.313 198.855 126.272 198.779 126.198C198.703 126.124 198.66 126.024 198.66 125.919C198.66 125.815 198.703 125.714 198.779 125.641C198.855 125.567 198.957 125.525 199.065 125.525H202.205C202.312 125.525 202.415 125.567 202.491 125.641C202.567 125.714 202.61 125.815 202.61 125.919C202.61 126.024 202.567 126.124 202.491 126.198C202.415 126.272 202.312 126.313 202.205 126.313Z" fill="#9AB3DA"/>
<path d="M32.7897 144.602C32.6823 144.602 32.5794 144.56 32.5035 144.486C32.4276 144.413 32.385 144.312 32.385 144.208V140.095C32.385 139.99 32.4276 139.89 32.5035 139.816C32.5794 139.742 32.6823 139.701 32.7897 139.701C32.897 139.701 32.9999 139.742 33.0758 139.816C33.1517 139.89 33.1943 139.99 33.1943 140.095V144.184C33.1976 144.238 33.1896 144.292 33.1708 144.342C33.1519 144.393 33.1227 144.439 33.0847 144.478C33.0468 144.517 33.0011 144.549 32.9503 144.57C32.8996 144.591 32.8449 144.602 32.7897 144.602Z" fill="#9AB3DA"/>
<path d="M37.1682 146.201H34.0199C33.9126 146.201 33.8096 146.16 33.7338 146.086C33.6579 146.012 33.6152 145.912 33.6152 145.807C33.6152 145.703 33.6579 145.603 33.7338 145.529C33.8096 145.455 33.9126 145.413 34.0199 145.413H37.1682C37.2755 145.413 37.3784 145.455 37.4543 145.529C37.5302 145.603 37.5728 145.703 37.5728 145.807C37.5728 145.912 37.5302 146.012 37.4543 146.086C37.3784 146.16 37.2755 146.201 37.1682 146.201Z" fill="#9AB3DA"/>
<path d="M32.7897 151.914C32.6823 151.914 32.5794 151.873 32.5035 151.799C32.4276 151.725 32.385 151.625 32.385 151.52V147.431C32.385 147.326 32.4276 147.226 32.5035 147.152C32.5794 147.078 32.6823 147.037 32.7897 147.037C32.897 147.037 32.9999 147.078 33.0758 147.152C33.1517 147.226 33.1943 147.326 33.1943 147.431V151.52C33.1943 151.625 33.1517 151.725 33.0758 151.799C32.9999 151.873 32.897 151.914 32.7897 151.914Z" fill="#9AB3DA"/>
<path d="M31.5595 146.201H28.4113C28.3039 146.201 28.201 146.16 28.1251 146.086C28.0492 146.012 28.0066 145.912 28.0066 145.807C28.0066 145.703 28.0492 145.603 28.1251 145.529C28.201 145.455 28.3039 145.413 28.4113 145.413H31.5595C31.6668 145.413 31.7698 145.455 31.8457 145.529C31.9215 145.603 31.9642 145.703 31.9642 145.807C31.9642 145.912 31.9215 146.012 31.8457 146.086C31.7698 146.16 31.6668 146.201 31.5595 146.201Z" fill="#9AB3DA"/>
<path d="M52.618 18.4164C49.6567 18.4164 46.7619 19.2713 44.2997 20.8731C41.8375 22.4749 39.9185 24.7516 38.7852 27.4153C37.652 30.079 37.3555 33.01 37.9332 35.8377C38.5109 38.6655 39.9369 41.2629 42.0308 43.3016C44.1248 45.3403 46.7926 46.7287 49.697 47.2912C52.6013 47.8536 55.6118 47.565 58.3477 46.4616C61.0835 45.3583 63.4219 43.4899 65.0671 41.0926C66.7123 38.6954 67.5904 35.877 67.5904 32.9938C67.5904 29.1276 66.013 25.4198 63.2051 22.686C60.3972 19.9522 56.5889 18.4164 52.618 18.4164ZM52.618 39.3449C51.3258 39.3542 50.0599 38.9897 48.9808 38.2976C47.9017 37.6054 47.058 36.6168 46.5569 35.4572C46.0557 34.2976 45.9196 33.0191 46.1657 31.784C46.4119 30.549 47.0293 29.4129 47.9397 28.5199C48.85 27.627 50.0122 27.0174 51.2788 26.7685C52.5455 26.5196 53.8596 26.6426 55.0543 27.1218C56.2491 27.6011 57.2708 28.4151 57.9897 29.4605C58.7087 30.5059 59.0925 31.7357 59.0925 32.9938C59.0947 34.6707 58.4148 36.2802 57.2015 37.4703C55.9882 38.6605 54.3402 39.3345 52.618 39.3449Z" fill="#9AB3DA"/>
<path d="M40.6158 33.3879C40.5085 33.3879 40.4056 33.3464 40.3297 33.2725C40.2538 33.1986 40.2112 33.0984 40.2112 32.9939C40.2155 29.7915 41.524 26.7214 43.8498 24.4569C46.1756 22.1925 49.3289 20.9185 52.6181 20.9143C52.7254 20.9143 52.8283 20.9558 52.9042 21.0297C52.9801 21.1036 53.0227 21.2038 53.0227 21.3083C53.0227 21.4128 52.9801 21.513 52.9042 21.5869C52.8283 21.6608 52.7254 21.7023 52.6181 21.7023C49.5435 21.7064 46.5961 22.8974 44.4221 25.0141C42.248 27.1308 41.0248 30.0004 41.0205 32.9939C41.0205 33.0984 40.9779 33.1986 40.902 33.2725C40.8261 33.3464 40.7232 33.3879 40.6158 33.3879Z" fill="white"/>
<path d="M52.618 45.0814C52.5107 45.0814 52.4078 45.0398 52.3319 44.966C52.256 44.8921 52.2134 44.7919 52.2134 44.6874C52.2134 44.5829 52.256 44.4827 52.3319 44.4088C52.4078 44.3349 52.5107 44.2934 52.618 44.2934C55.6926 44.2892 58.64 43.0982 60.814 40.9815C62.9881 38.8649 64.2113 35.9952 64.2156 33.0018C64.2156 32.8973 64.2582 32.7971 64.3341 32.7232C64.41 32.6493 64.513 32.6078 64.6203 32.6078C64.7276 32.6078 64.8305 32.6493 64.9064 32.7232C64.9823 32.7971 65.0249 32.8973 65.0249 33.0018C65.0207 36.2042 63.7121 39.2743 61.3863 41.5387C59.0605 43.8032 55.9072 45.0772 52.618 45.0814Z" fill="white"/>
<path d="M52.618 42.1581C50.1223 42.156 47.7295 41.1898 45.9648 39.4716C44.2001 37.7535 43.2077 35.4238 43.2056 32.994C43.2056 32.8895 43.2482 32.7893 43.3241 32.7154C43.4 32.6415 43.5029 32.6 43.6102 32.6C43.7175 32.6 43.8205 32.6415 43.8964 32.7154C43.9723 32.7893 44.0149 32.8895 44.0149 32.994C44.017 35.2148 44.9241 37.3441 46.537 38.9145C48.15 40.4848 50.337 41.368 52.618 41.3701C52.7253 41.3701 52.8282 41.4116 52.9041 41.4855C52.98 41.5594 53.0226 41.6596 53.0226 41.7641C53.0226 41.8686 52.98 41.9688 52.9041 42.0427C52.8282 42.1165 52.7253 42.1581 52.618 42.1581Z" fill="white"/>
<path d="M61.6258 33.3878C61.5185 33.3878 61.4155 33.3463 61.3396 33.2725C61.2638 33.1986 61.2211 33.0984 61.2211 32.9939C61.2168 30.7744 60.3088 28.6471 58.6961 27.0784C57.0834 25.5098 54.8977 24.6277 52.618 24.6256C52.5107 24.6256 52.4078 24.5841 52.3319 24.5102C52.256 24.4363 52.2134 24.3361 52.2134 24.2316C52.2134 24.1271 52.256 24.0269 52.3319 23.953C52.4078 23.8792 52.5107 23.8376 52.618 23.8376C55.1137 23.8397 57.5066 24.8059 59.2713 26.5241C61.036 28.2422 62.0283 30.5719 62.0305 33.0017C62.0283 33.1049 61.9848 33.2031 61.9091 33.2752C61.8334 33.3474 61.7317 33.3879 61.6258 33.3878Z" fill="white"/>
</svg>
