<svg width="38" height="429" viewBox="0 0 38 429" fill="none" xmlns="http://www.w3.org/2000/svg">
<path d="M19 0.333334C8.69068 0.333334 0.333334 8.69068 0.333334 19C0.333334 29.3093 8.69068 37.6667 19 37.6667C29.3093 37.6667 37.6667 29.3093 37.6667 19C37.6667 8.69068 29.3093 0.333334 19 0.333334ZM19 391.333C8.69068 391.333 0.333334 399.691 0.333334 410C0.333334 420.309 8.69068 428.667 19 428.667C29.3093 428.667 37.6667 420.309 37.6667 410C37.6667 399.691 29.3093 391.333 19 391.333ZM15.5 19L15.5 410H22.5L22.5 19H15.5Z" fill="#202C96"/>
</svg>
