<svg width="38" height="425" viewBox="0 0 38 425" fill="none" xmlns="http://www.w3.org/2000/svg">
<path d="M19 0.333334C8.69068 0.333334 0.333334 8.69068 0.333334 19C0.333334 29.3093 8.69068 37.6667 19 37.6667C29.3093 37.6667 37.6667 29.3093 37.6667 19C37.6667 8.69068 29.3093 0.333334 19 0.333334ZM19 387.333C8.69068 387.333 0.333334 395.691 0.333334 406C0.333334 416.309 8.69068 424.667 19 424.667C29.3093 424.667 37.6667 416.309 37.6667 406C37.6667 395.691 29.3093 387.333 19 387.333ZM15.5 19L15.5 406H22.5L22.5 19H15.5Z" fill="#1C55EB"/>
</svg>
